<svg width="376" height="63" viewBox="0 0 376 63" fill="none" xmlns="http://www.w3.org/2000/svg">
<path d="M375.36 63H0.329956C0.879956 57.47 2.97994 52.4 6.18994 48.22C11.4999 41.31 19.85 36.86 29.23 36.86C40.98 36.86 51.1 43.85 55.67 53.9C58.6 48.83 64.07 45.41 70.35 45.41C74.42 45.41 78.15 46.84 81.08 49.23C84.36 34.28 97.68 23.09 113.61 23.09C128.22 23.09 140.62 32.49 145.12 45.56C148.07 33.4 159.02 24.37 172.08 24.37C181.07 24.37 189.05 28.64 194.12 35.27C198.74 15.36 216.58 0.519989 237.89 0.519989C259.2 0.519989 277.03 15.35 281.65 35.25C286.85 31.58 293.18 29.41 300.03 29.41C306.16 29.41 311.88 31.14 316.74 34.15C322.8 37.88 327.51 43.6 329.98 50.39C330.27 51.18 330.53 51.99 330.75 52.81C335.7 48.25 342.3 45.46 349.56 45.46C353.77 45.46 357.77 46.4 361.34 48.09C367.71 51.08 372.75 56.42 375.36 63Z" fill="#F6F6F6"/>
</svg>
