<svg width="251" height="64" viewBox="0 0 251 64" fill="none" xmlns="http://www.w3.org/2000/svg">
<path d="M26.48 45.51C33.74 45.51 40.34 48.3 45.28 52.86C48.99 39.37 61.34 29.46 76.01 29.46C82.86 29.46 89.19 31.63 94.39 35.3C99.02 15.4 116.85 0.570007 138.15 0.570007C159.46 0.570007 177.3 15.41 181.92 35.32C186.99 28.7 194.97 24.42 203.96 24.42C219.28 24.42 231.71 36.84 231.71 52.17V52.18C231.82 52.18 231.94 52.17 232.05 52.17C240.09 52.17 247.1 56.55 250.84 63.06H0.690002C4.75 52.78 14.77 45.51 26.48 45.51Z" fill="#F6F6F6"/>
</svg>
