<svg width="251" height="63" viewBox="0 0 251 63" fill="none" xmlns="http://www.w3.org/2000/svg">
<path d="M224.99 45.33C217.73 45.33 211.13 48.12 206.19 52.68C202.48 39.19 190.13 29.28 175.46 29.28C168.61 29.28 162.28 31.45 157.08 35.12C152.45 15.22 134.62 0.390015 113.32 0.390015C92.01 0.390015 74.17 15.23 69.55 35.14C64.48 28.52 56.5 24.24 47.51 24.24C32.19 24.24 19.76 36.66 19.76 51.99V52C19.65 52 19.53 51.99 19.42 51.99C11.38 51.99 4.37 56.37 0.630005 62.88H250.79C246.72 52.6 236.71 45.33 224.99 45.33Z" fill="#F6F6F6"/>
</svg>
