<svg width="507" height="61" viewBox="0 0 507 61" fill="none" xmlns="http://www.w3.org/2000/svg">
<path d="M475.45 39.25C472.36 39.25 469.38 39.67 466.54 40.45C466.89 38.5 467.08 36.49 467.08 34.44C467.08 15.76 451.94 0.61998 433.26 0.61998C415.31 0.61998 400.63 14.61 399.51 32.28C395.99 30.44 391.99 29.39 387.74 29.39C383.93 29.39 380.33 30.23 377.08 31.73C372.49 25.06 364.81 20.68 356.09 20.68C350.9 20.68 346.08 22.24 342.06 24.9C335.21 11.77 321.48 2.78998 305.65 2.78998C288.05 2.78998 273.05 13.87 267.22 29.44C264.81 13.13 250.75 0.609985 233.77 0.609985C215.82 0.609985 201.14 14.6 200.02 32.27C196.5 30.43 192.5 29.38 188.25 29.38C184.44 29.38 180.84 30.22 177.59 31.72C173 25.05 165.32 20.67 156.6 20.67C151.41 20.67 146.59 22.23 142.57 24.89C135.72 11.76 121.99 2.77998 106.16 2.77998C86.14 2.77998 69.47 17.12 65.85 36.09C62.98 35.02 59.87 34.43 56.63 34.43C43.35 34.43 32.36 44.25 30.53 57.03C26.83 55.05 22.6 53.92 18.1 53.92C11.26 53.92 5.02997 56.53 0.339966 60.8H199.83H307.47H506.96C502.05 48.2 489.8 39.25 475.45 39.25Z" fill="#F6F6F6"/>
</svg>
