<svg width="99" height="110" viewBox="0 0 99 110" fill="none" xmlns="http://www.w3.org/2000/svg">
<path d="M95.03 55.69C96.62 57.37 97.3201 59.8 96.6801 62.18C96.0101 64.66 94.08 66.45 91.77 67.06C92.97 69.13 93.07 71.76 91.79 73.99C90.51 76.21 88.17 77.44 85.78 77.43C86.41 79.74 85.82 82.31 84.01 84.12C82.2 85.93 79.6299 86.52 77.3199 85.89C77.3299 88.28 76.1 90.61 73.88 91.9C71.66 93.18 69.02 93.08 66.95 91.87C66.35 94.19 64.55 96.12 62.08 96.78C59.6 97.45 57.08 96.67 55.4 94.97C54.21 97.05 51.98 98.45 49.41 98.45C46.85 98.45 44.61 97.05 43.43 94.97C41.74 96.67 39.22 97.45 36.75 96.78C34.27 96.12 32.48 94.19 31.87 91.87C29.8 93.08 27.17 93.18 24.95 91.9C22.73 90.61 21.49 88.28 21.5 85.89C19.19 86.52 16.62 85.93 14.81 84.12C13 82.31 12.41 79.74 13.04 77.43C10.65 77.44 8.31998 76.21 7.03998 73.99C5.74998 71.76 5.85 69.13 7.06 67.06C4.74 66.45 2.81002 64.66 2.15002 62.18C1.50002 59.79 2.20998 57.36 3.78998 55.68C3.83998 55.62 3.90002 55.56 3.96002 55.5C3.71002 55.36 3.48 55.21 3.25 55.04C1.57 53.79 0.47998 51.78 0.47998 49.52C0.47998 47.69 1.18999 46.03 2.35999 44.8C2.75999 44.37 3.22999 43.99 3.73999 43.68C3.80999 43.63 3.88002 43.58 3.96002 43.54C2.26002 41.85 1.48002 39.33 2.15002 36.85C2.37002 36.01 2.74998 35.25 3.22998 34.59C3.39998 34.35 3.58998 34.13 3.78998 33.92C4.66998 32.98 5.81 32.31 7.06 31.98C5.85 29.91 5.74998 27.27 7.03998 25.05C8.31998 22.83 10.65 21.6 13.04 21.61C12.41 19.3 13 16.73 14.81 14.92C16.62 13.11 19.19 12.52 21.5 13.15C21.49 10.76 22.73 8.43001 24.95 7.14001C27.17 5.86001 29.8 5.95998 31.87 7.16998C32.48 4.84998 34.27 2.92001 36.75 2.26001C39.22 1.59001 41.74 2.37001 43.43 4.07001C44.61 1.99001 46.85 0.590027 49.41 0.590027C51.98 0.590027 54.21 1.99001 55.4 4.07001C57.08 2.37001 59.6 1.59001 62.08 2.26001C64.55 2.92001 66.35 4.84998 66.95 7.16998C69.02 5.95998 71.66 5.86001 73.88 7.14001C76.1 8.43001 77.3299 10.76 77.3199 13.15C79.6299 12.52 82.2 13.11 84.01 14.92C85.82 16.73 86.41 19.3 85.78 21.61C88.17 21.6 90.51 22.83 91.79 25.05C93.07 27.27 92.97 29.91 91.77 31.98C93.01 32.31 94.14 32.98 95.03 33.91C95.23 34.12 95.42 34.35 95.59 34.59C96.08 35.25 96.4501 36.01 96.6801 36.85C97.3401 39.33 96.56 41.85 94.86 43.54C94.94 43.58 95.01 43.63 95.08 43.68C95.59 43.99 96.06 44.37 96.46 44.8C97.63 46.03 98.34 47.69 98.34 49.52C98.34 51.78 97.2499 53.79 95.5699 55.04C95.3399 55.21 95.11 55.36 94.86 55.5C94.92 55.56 94.98 55.63 95.03 55.69Z" fill="#E1E0D9"/>
<path d="M94.86 46.06C96.56 47.75 97.3401 50.27 96.6801 52.74C96.4501 53.6 96.0699 54.37 95.5699 55.04C95.3999 55.27 95.22 55.49 95.03 55.69C94.14 56.62 93.01 57.29 91.77 57.62C92.97 59.69 93.07 62.32 91.79 64.55C90.51 66.77 88.17 68 85.78 67.99C86.41 70.3 85.82 72.87 84.01 74.68C82.2 76.49 79.6299 77.08 77.3199 76.45C77.3299 78.84 76.1 81.17 73.88 82.46C71.66 83.74 69.02 83.64 66.95 82.43C66.35 84.75 64.55 86.68 62.08 87.34C59.6 88.01 57.08 87.23 55.4 85.53C54.21 87.61 51.98 89.01 49.41 89.01C46.85 89.01 44.61 87.61 43.43 85.53C41.74 87.23 39.22 88.01 36.75 87.34C34.27 86.68 32.48 84.75 31.87 82.43C29.8 83.64 27.17 83.74 24.95 82.46C22.73 81.17 21.49 78.84 21.5 76.45C19.19 77.08 16.62 76.49 14.81 74.68C13 72.87 12.41 70.3 13.04 67.99C10.65 68 8.31998 66.77 7.03998 64.55C5.74998 62.32 5.85 59.69 7.06 57.62C5.81 57.29 4.66998 56.62 3.78998 55.68C3.59998 55.48 3.42 55.27 3.25 55.04C2.76 54.37 2.38002 53.6 2.15002 52.74C1.48002 50.27 2.26002 47.75 3.96002 46.06C3.36002 45.72 2.81999 45.3 2.35999 44.8C1.18999 43.57 0.47998 41.9 0.47998 40.08C0.47998 37.83 1.55998 35.83 3.22998 34.59C3.38998 34.46 3.55999 34.35 3.73999 34.24C3.80999 34.19 3.88002 34.14 3.96002 34.1C3.90002 34.04 3.83998 33.98 3.78998 33.92C4.66998 32.98 5.81 32.31 7.06 31.98C5.85 29.91 5.74998 27.27 7.03998 25.05C8.31998 22.83 10.65 21.6 13.04 21.61C12.41 19.3 13 16.73 14.81 14.92C16.62 13.11 19.19 12.52 21.5 13.15C21.49 10.76 22.73 8.43001 24.95 7.14001C27.17 5.86001 29.8 5.95998 31.87 7.16998C32.48 4.84998 34.27 2.92001 36.75 2.26001C39.22 1.59001 41.74 2.37001 43.43 4.07001C44.61 1.99001 46.85 0.590027 49.41 0.590027C51.98 0.590027 54.21 1.99001 55.4 4.07001C57.08 2.37001 59.6 1.59001 62.08 2.26001C64.55 2.92001 66.35 4.84998 66.95 7.16998C69.02 5.95998 71.66 5.86001 73.88 7.14001C76.1 8.43001 77.3299 10.76 77.3199 13.15C79.6299 12.52 82.2 13.11 84.01 14.92C85.82 16.73 86.41 19.3 85.78 21.61C88.17 21.6 90.51 22.83 91.79 25.05C93.07 27.27 92.97 29.91 91.77 31.98C93.01 32.31 94.14 32.98 95.03 33.91C94.98 33.97 94.92 34.04 94.86 34.1C94.94 34.14 95.01 34.19 95.08 34.24C95.26 34.35 95.43 34.46 95.59 34.59C97.26 35.83 98.34 37.83 98.34 40.08C98.34 41.9 97.63 43.57 96.46 44.8C96 45.3 95.46 45.72 94.86 46.06Z" fill="#F1EFEC"/>
<path d="M17.18 40.72C20.5158 40.72 23.22 38.0158 23.22 34.68C23.22 31.3442 20.5158 28.64 17.18 28.64C13.8442 28.64 11.14 31.3442 11.14 34.68C11.14 38.0158 13.8442 40.72 17.18 40.72Z" fill="#E1E0D9"/>
<path d="M28.37 56.88C31.7058 56.88 34.41 54.1758 34.41 50.84C34.41 47.5042 31.7058 44.8 28.37 44.8C25.0342 44.8 22.33 47.5042 22.33 50.84C22.33 54.1758 25.0342 56.88 28.37 56.88Z" fill="#E1E0D9"/>
<path d="M54.77 70.39C56.3054 70.39 57.55 69.1453 57.55 67.61C57.55 66.0746 56.3054 64.83 54.77 64.83C53.2347 64.83 51.99 66.0746 51.99 67.61C51.99 69.1453 53.2347 70.39 54.77 70.39Z" fill="#E1E0D9"/>
<path d="M67.95 63.87C69.4854 63.87 70.73 62.6254 70.73 61.09C70.73 59.5547 69.4854 58.31 67.95 58.31C66.4147 58.31 65.17 59.5547 65.17 61.09C65.17 62.6254 66.4147 63.87 67.95 63.87Z" fill="#E1E0D9"/>
<path d="M78.47 34.31C81.8058 34.31 84.51 31.6058 84.51 28.27C84.51 24.9342 81.8058 22.23 78.47 22.23C75.1342 22.23 72.43 24.9342 72.43 28.27C72.43 31.6058 75.1342 34.31 78.47 34.31Z" fill="#E1E0D9"/>
<path d="M77.55 51.63C80.8858 51.63 83.59 48.9258 83.59 45.59C83.59 42.2542 80.8858 39.55 77.55 39.55C74.2142 39.55 71.51 42.2542 71.51 45.59C71.51 48.9258 74.2142 51.63 77.55 51.63Z" fill="#E1E0D9"/>
<path d="M49.41 58.31C42.38 58.31 36.68 52.61 36.68 45.58V28.27H62.13V45.58C62.14 52.61 56.44 58.31 49.41 58.31Z" fill="#3B2314"/>
<path d="M49.41 55.95C42.38 55.95 36.68 50.25 36.68 43.22V25.91H62.13V43.22C62.14 50.26 56.44 55.95 49.41 55.95Z" fill="#603813"/>
<path d="M62.89 26.54C62.89 28.78 61.06 30.61 58.82 30.61C57.57 30.61 56.47 30.03 55.72 29.16C55.02 29.73 54.14 30.09 53.16 30.09C52.82 30.09 52.49 30.03 52.18 29.96C52.21 30.17 52.24 30.38 52.24 30.61C52.24 32.85 50.42 34.68 48.17 34.68C46.4 34.68 44.9 33.53 44.35 31.95C43.42 31.51 42.69 30.75 42.3 29.8C41.56 30.62 40.5 31.14 39.31 31.14C37.1 31.14 35.31 29.39 35.25 27.2C35.24 27.16 35.24 27.11 35.24 27.07C35.24 24.83 37.05 23.01 39.29 23C39.6 22.42 40.02 21.91 40.56 21.53C40.55 21.43 40.53 21.33 40.53 21.22C40.53 18.98 42.35 17.15 44.6 17.15C46.39 17.15 47.89 18.31 48.43 19.91C48.65 19.88 48.86 19.85 49.09 19.85C50.1 19.85 51.01 20.23 51.72 20.84C52.46 19.8 53.66 19.12 55.03 19.12C57.04 19.12 58.7 20.58 59.03 22.49C60.55 22.57 61.84 23.47 62.47 24.75C62.74 25.29 62.89 25.9 62.89 26.54Z" fill="#E1E0D9"/>
<path d="M62.48 24.87C62.48 27.12 60.66 28.94 58.41 28.94C57.17 28.94 56.07 28.37 55.32 27.49C54.62 28.07 53.74 28.43 52.76 28.43C52.42 28.43 52.09 28.37 51.78 28.29C51.81 28.51 51.84 28.72 51.84 28.94C51.84 31.19 50.02 33.01 47.77 33.01C46 33.01 44.5 31.87 43.95 30.29C43.02 29.85 42.29 29.09 41.9 28.14C41.16 28.96 40.1 29.48 38.9 29.48C37.3 29.48 35.91 28.55 35.25 27.2C35.24 27.16 35.24 27.11 35.24 27.07C35.24 24.83 37.05 23.01 39.29 23C39.6 22.42 40.02 21.91 40.56 21.53C40.55 21.43 40.53 21.33 40.53 21.22C40.53 18.98 42.35 17.15 44.6 17.15C46.39 17.15 47.89 18.31 48.43 19.91C48.65 19.88 48.86 19.85 49.09 19.85C50.1 19.85 51.01 20.23 51.72 20.84C52.46 19.8 53.66 19.12 55.03 19.12C57.04 19.12 58.7 20.58 59.03 22.49C60.55 22.57 61.84 23.47 62.47 24.75C62.48 24.79 62.48 24.83 62.48 24.87Z" fill="#F1EFEC"/>
<path d="M39.29 92.3C38.77 92.3 38.29 92.15 37.87 91.91C37.36 92.68 36.49 93.18 35.51 93.18C35.12 93.18 34.75 93.1 34.41 92.96V109.14H40.17V92.15C39.89 92.24 39.6 92.3 39.29 92.3Z" fill="#603813"/>
<path d="M40.17 104.86H34.41V109.14H40.17V104.86Z" fill="#3B2314"/>
<path d="M60.13 92.3C60.65 92.3 61.13 92.15 61.55 91.91C62.06 92.68 62.93 93.18 63.91 93.18C64.3 93.18 64.67 93.1 65.01 92.96V109.14H59.25V92.15C59.53 92.24 59.82 92.3 60.13 92.3Z" fill="#603813"/>
<path d="M59.2522 109.14L65.0122 109.14L65.0122 104.86L59.2522 104.86L59.2522 109.14Z" fill="#3B2314"/>
</svg>
