<svg width="109" height="80" viewBox="0 0 109 80" fill="none" xmlns="http://www.w3.org/2000/svg">
<path d="M31.31 36.1C31.09 36.91 30.47 37.49 29.72 37.68C30.11 38.35 30.14 39.2 29.72 39.92C29.31 40.63 28.56 41.03 27.78 41.03C27.99 41.78 27.8 42.61 27.21 43.2C26.63 43.78 25.79 43.97 25.05 43.77C25.05 44.54 24.65 45.3 23.93 45.71C23.22 46.13 22.37 46.09 21.69 45.71C21.5 46.45 20.92 47.08 20.11 47.29C19.32 47.51 18.51 47.25 17.96 46.7C17.57 47.37 16.85 47.83 16.03 47.83C15.19 47.83 14.47 47.37 14.09 46.7C13.54 47.25 12.73 47.51 11.92 47.29C11.13 47.08 10.54 46.45 10.35 45.71C9.67998 46.09 8.82999 46.13 8.10999 45.71C7.38999 45.3 7 44.54 7 43.77C6.25 43.97 5.42002 43.78 4.83002 43.2C4.47002 42.83 4.26001 42.37 4.20001 41.9C4.16001 41.61 4.18001 41.31 4.26001 41.03C4.04001 41.03 3.83 41 3.62 40.94C3.25999 40.83 2.92997 40.64 2.65997 40.36C2.52997 40.23 2.42001 40.09 2.32001 39.92C1.90001 39.2 1.94001 38.35 2.32001 37.68C1.58001 37.49 0.95999 36.91 0.73999 36.1C0.51999 35.3 0.780007 34.49 1.32001 33.94C1.32001 33.93 1.32 33.93 1.31 33.93C1.29 33.93 1.27001 33.91 1.26001 33.9C1.26001 33.9 1.27002 33.9 1.27002 33.89C1.29002 33.88 1.31001 33.87 1.32001 33.86C0.920007 33.45 0.679973 32.9 0.659973 32.32C0.659973 32.11 0.67999 31.9 0.73999 31.69C0.83999 31.33 1.02002 31 1.27002 30.74C1.29002 30.72 1.31001 30.7 1.32001 30.69C1.60001 30.41 1.95001 30.21 2.32001 30.12C1.94001 29.45 1.90001 28.59 2.32001 27.88C2.73001 27.16 3.49001 26.76 4.26001 26.77C4.06001 26.01 4.25002 25.19 4.83002 24.6C5.42002 24.02 6.25 23.83 7 24.03C7 23.26 7.38999 22.5 8.10999 22.09C8.82999 21.67 9.67998 21.7 10.35 22.09C10.54 21.34 11.13 20.72 11.92 20.51C12.73 20.29 13.54 20.54 14.09 21.09C14.47 20.42 15.19 19.97 16.03 19.97C16.85 19.97 17.57 20.42 17.96 21.09C18.51 20.54 19.32 20.29 20.11 20.51C20.92 20.72 21.5 21.34 21.69 22.09C22.37 21.7 23.22 21.67 23.93 22.09C24.1 22.19 24.25 22.3 24.38 22.43C24.66 22.7 24.85 23.03 24.96 23.39C25.02 23.6 25.05 23.81 25.05 24.03C25.33 23.95 25.63 23.93 25.92 23.97C26.39 24.03 26.85 24.24 27.21 24.6C27.8 25.19 27.99 26.01 27.78 26.77C28.56 26.76 29.31 27.16 29.72 27.88C30.14 28.59 30.11 29.45 29.72 30.12C30.09 30.21 30.44 30.41 30.72 30.69C30.74 30.7 30.76 30.72 30.77 30.74C31.02 31 31.21 31.33 31.31 31.69C31.37 31.9 31.39 32.11 31.38 32.32C31.37 32.9 31.13 33.45 30.72 33.86C30.74 33.87 30.76 33.88 30.77 33.9C30.78 33.9 30.78 33.9 30.79 33.9C30.78 33.9 30.77 33.92 30.75 33.92C30.74 33.93 30.73 33.93 30.72 33.94C31.27 34.49 31.53 35.3 31.31 36.1Z" fill="#E1E0D9"/>
<path d="M27.84 32.64C27.62 33.44 27 34.02 26.25 34.21C26.64 34.88 26.67 35.73 26.25 36.45C25.84 37.17 25.09 37.56 24.32 37.56C24.52 38.31 24.33 39.14 23.75 39.73C23.16 40.31 22.33 40.5 21.58 40.3C21.58 41.07 21.18 41.83 20.46 42.24C19.75 42.66 18.9 42.62 18.22 42.24C18.03 42.98 17.45 43.61 16.65 43.82C15.85 44.04 15.04 43.78 14.49 43.24C14.11 43.9 13.38 44.36 12.56 44.36C11.72 44.36 11 43.9 10.62 43.24C10.07 43.78 9.26002 44.04 8.46002 43.82C7.66002 43.61 7.07001 42.98 6.89001 42.24C6.21001 42.62 5.36001 42.66 4.64001 42.24C4.47001 42.14 4.33001 42.03 4.20001 41.9C3.92001 41.63 3.73 41.3 3.62 40.94C3.56 40.73 3.53003 40.52 3.53003 40.3C3.25003 40.38 2.94997 40.4 2.65997 40.36C2.52997 40.23 2.42001 40.09 2.32001 39.92C1.90001 39.2 1.94001 38.35 2.32001 37.68C1.58001 37.49 0.95999 36.91 0.73999 36.1C0.51999 35.3 0.780007 34.49 1.32001 33.94C1.32001 33.93 1.32 33.93 1.31 33.93C1.29 33.93 1.27001 33.91 1.26001 33.9C1.26001 33.9 1.27002 33.9 1.27002 33.89C1.29002 33.88 1.31001 33.87 1.32001 33.86C0.920007 33.45 0.679973 32.9 0.659973 32.32C0.659973 32.11 0.67999 31.9 0.73999 31.69C0.83999 31.33 1.02002 31 1.27002 30.74C1.29002 30.72 1.31001 30.7 1.32001 30.69C1.60001 30.41 1.95001 30.21 2.32001 30.12C1.94001 29.45 1.90001 28.59 2.32001 27.88C2.73001 27.16 3.49001 26.76 4.26001 26.77C4.06001 26.01 4.25002 25.19 4.83002 24.6C5.42002 24.02 6.25 23.83 7 24.03C7 23.26 7.38999 22.5 8.10999 22.09C8.82999 21.67 9.67998 21.7 10.35 22.09C10.54 21.34 11.13 20.72 11.92 20.51C12.73 20.29 13.54 20.54 14.09 21.09C14.47 20.42 15.19 19.97 16.03 19.97C16.85 19.97 17.57 20.42 17.96 21.09C18.51 20.54 19.32 20.29 20.11 20.51C20.92 20.72 21.5 21.34 21.69 22.09C22.37 21.7 23.22 21.67 23.93 22.09C24.1 22.19 24.25 22.3 24.38 22.43C24.42 22.72 24.4 23.02 24.32 23.3C24.54 23.3 24.75 23.33 24.96 23.39C25.32 23.49 25.65 23.69 25.92 23.97C26.05 24.1 26.16 24.24 26.25 24.41C26.67 25.12 26.64 25.98 26.25 26.65C26.62 26.75 26.98 26.94 27.25 27.22C27.27 27.23 27.29 27.25 27.31 27.27C27.55 27.53 27.74 27.86 27.84 28.23C27.9 28.44 27.92 28.65 27.91 28.85C27.9 29.43 27.66 29.98 27.25 30.39C27.27 30.4 27.29 30.41 27.31 30.43C27.3 30.44 27.3 30.45 27.28 30.45C27.27 30.46 27.26 30.46 27.25 30.47C27.8 31.02 28.06 31.83 27.84 32.64Z" fill="#F1EFEC"/>
<path d="M62.9359 79.8109L66.8959 79.8109L66.8959 68.5009L62.9359 68.5009L62.9359 79.8109Z" fill="#603813"/>
<path d="M45.5758 79.8109L49.5358 79.8109L49.5358 68.5009L45.5758 68.5009L45.5758 79.8109Z" fill="#603813"/>
<path d="M21.61 41.74C20.33 43.01 19.75 44.9 20.24 46.76C20.74 48.62 22.19 49.97 23.93 50.43C23.03 51.99 22.95 53.96 23.91 55.64C24.87 57.31 26.63 58.23 28.43 58.22C27.96 59.96 28.4 61.89 29.76 63.25C31.12 64.61 33.05 65.05 34.79 64.58C34.78 66.38 35.71 68.13 37.37 69.1C39.04 70.06 41.02 69.99 42.58 69.08C43.03 70.82 44.38 72.27 46.24 72.77C48.1 73.27 50 72.69 51.26 71.41C52.15 72.97 53.83 74.02 55.76 74.02C57.68 74.02 59.37 72.97 60.25 71.41C61.52 72.69 63.41 73.27 65.27 72.77C67.13 72.27 68.48 70.82 68.94 69.08C70.5 69.99 72.47 70.06 74.14 69.1C75.81 68.13 76.74 66.38 76.73 64.58C78.47 65.05 80.4 64.61 81.76 63.25C83.12 61.89 83.56 59.96 83.09 58.22C84.89 58.23 86.64 57.3 87.6 55.64C88.57 53.96 88.49 51.99 87.59 50.43C89.33 49.97 90.78 48.63 91.28 46.76C91.78 44.9 91.2 43.01 89.92 41.74C91.48 40.85 92.53 39.17 92.53 37.25C92.53 35.39 91.55 33.76 90.08 32.86C90.03 32.82 89.97 32.78 89.91 32.75C91.19 31.48 91.77 29.59 91.27 27.72C90.77 25.86 89.32 24.52 87.58 24.06C88.49 22.5 88.56 20.52 87.59 18.85C86.63 17.18 84.88 16.26 83.08 16.27C83.55 14.53 83.11 12.6 81.75 11.24C80.39 9.87999 78.46 9.43997 76.72 9.90997C76.73 8.10997 75.8 6.36001 74.13 5.39001C72.46 4.43001 70.49 4.49997 68.93 5.40997C68.47 3.66997 67.13 2.21997 65.26 1.71997C63.4 1.21997 61.51 1.80002 60.24 3.08002C59.35 1.52002 57.67 0.469971 55.75 0.469971C53.82 0.469971 52.14 1.52002 51.25 3.08002C49.99 1.80002 48.09 1.21997 46.23 1.71997C44.37 2.21997 43.02 3.66997 42.57 5.40997C41.01 4.49997 39.03 4.43001 37.36 5.39001C35.69 6.36001 34.77 8.10997 34.78 9.90997C33.04 9.43997 31.11 9.87999 29.75 11.24C28.39 12.6 27.95 14.53 28.42 16.27C26.62 16.26 24.87 17.19 23.9 18.85C22.94 20.52 23.01 22.5 23.92 24.06C22.18 24.52 20.73 25.86 20.23 27.72C19.73 29.58 20.32 31.48 21.6 32.75C21.54 32.78 21.49 32.82 21.43 32.86C19.96 33.76 18.98 35.39 18.98 37.25C19 39.17 20.05 40.86 21.61 41.74Z" fill="#E1E0D9"/>
<path d="M21.61 32.96C20.33 34.22 19.75 36.12 20.24 37.98C20.74 39.84 22.19 41.19 23.93 41.65C23.03 43.21 22.95 45.18 23.91 46.85C24.87 48.52 26.63 49.44 28.43 49.43C27.96 51.17 28.4 53.1 29.76 54.46C31.12 55.83 33.05 56.26 34.79 55.8C34.78 57.6 35.71 59.35 37.37 60.31C39.04 61.27 41.02 61.2 42.58 60.29C43.03 62.03 44.38 63.48 46.24 63.98C48.1 64.48 50 63.9 51.26 62.62C52.15 64.18 53.83 65.23 55.76 65.23C57.68 65.23 59.37 64.17 60.25 62.62C61.52 63.9 63.41 64.48 65.27 63.98C67.13 63.48 68.48 62.03 68.94 60.29C70.5 61.19 72.47 61.27 74.14 60.31C75.81 59.35 76.74 57.6 76.73 55.8C78.47 56.27 80.4 55.83 81.76 54.46C83.12 53.1 83.56 51.17 83.09 49.43C84.89 49.44 86.64 48.51 87.6 46.85C88.57 45.18 88.49 43.21 87.59 41.65C89.33 41.19 90.78 39.85 91.28 37.98C91.78 36.12 91.2 34.22 89.92 32.96C89.98 32.93 90.03 32.89 90.09 32.86C90.04 32.82 89.98 32.78 89.92 32.75C91.2 31.48 91.78 29.59 91.28 27.72C90.78 25.86 89.33 24.52 87.59 24.06C88.5 22.5 88.57 20.52 87.6 18.85C86.64 17.18 84.89 16.26 83.09 16.27C83.56 14.53 83.12 12.6 81.76 11.24C80.4 9.87999 78.47 9.43997 76.73 9.90997C76.74 8.10997 75.81 6.36001 74.14 5.39001C72.47 4.43001 70.5 4.49997 68.94 5.40997C68.48 3.66997 67.14 2.21997 65.27 1.71997C63.41 1.21997 61.52 1.80002 60.25 3.08002C59.36 1.52002 57.68 0.469971 55.76 0.469971C53.83 0.469971 52.15 1.52002 51.26 3.08002C50 1.80002 48.1 1.21997 46.24 1.71997C44.38 2.21997 43.03 3.66997 42.58 5.40997C41.02 4.49997 39.04 4.43001 37.37 5.39001C35.7 6.36001 34.78 8.10997 34.79 9.90997C33.05 9.43997 31.12 9.87999 29.76 11.24C28.4 12.6 27.96 14.53 28.43 16.27C26.63 16.26 24.88 17.19 23.91 18.85C22.95 20.52 23.02 22.5 23.93 24.06C22.19 24.52 20.74 25.86 20.24 27.72C19.74 29.58 20.33 31.48 21.61 32.75C21.55 32.78 21.5 32.82 21.44 32.86C21.5 32.89 21.55 32.93 21.61 32.96Z" fill="#F1EFEC"/>
<path d="M71.44 44.67C73.9474 44.67 75.98 42.6374 75.98 40.13C75.98 37.6226 73.9474 35.59 71.44 35.59C68.9326 35.59 66.9 37.6226 66.9 40.13C66.9 42.6374 68.9326 44.67 71.44 44.67Z" fill="#E1E0D9"/>
<path d="M52.65 51.26C54.3676 51.26 55.76 49.8676 55.76 48.15C55.76 46.4324 54.3676 45.04 52.65 45.04C50.9324 45.04 49.54 46.4324 49.54 48.15C49.54 49.8676 50.9324 51.26 52.65 51.26Z" fill="#E1E0D9"/>
<path d="M58.72 33.89C60.2885 33.89 61.56 32.6185 61.56 31.05C61.56 29.4815 60.2885 28.21 58.72 28.21C57.1515 28.21 55.88 29.4815 55.88 31.05C55.88 32.6185 57.1515 33.89 58.72 33.89Z" fill="#E1E0D9"/>
<path d="M15.59 40.71C16.3632 40.71 16.99 40.0832 16.99 39.31C16.99 38.5368 16.3632 37.91 15.59 37.91C14.8168 37.91 14.19 38.5368 14.19 39.31C14.19 40.0832 14.8168 40.71 15.59 40.71Z" fill="#E1E0D9"/>
<path d="M9.31 36.36C10.0832 36.36 10.71 35.7332 10.71 34.96C10.71 34.1868 10.0832 33.56 9.31 33.56C8.5368 33.56 7.90997 34.1868 7.90997 34.96C7.90997 35.7332 8.5368 36.36 9.31 36.36Z" fill="#E1E0D9"/>
<path d="M12.41 31.41C13.1832 31.41 13.81 30.7832 13.81 30.01C13.81 29.2368 13.1832 28.61 12.41 28.61C11.6368 28.61 11.01 29.2368 11.01 30.01C11.01 30.7832 11.6368 31.41 12.41 31.41Z" fill="#E1E0D9"/>
<path d="M34 40.13C36.5074 40.13 38.54 38.0974 38.54 35.59C38.54 33.0827 36.5074 31.05 34 31.05C31.4926 31.05 29.46 33.0827 29.46 35.59C29.46 38.0974 31.4926 40.13 34 40.13Z" fill="#E1E0D9"/>
<path d="M82.6 50.38L93.04 55.32C97.75 57.54 103.38 55.54 105.6 50.83L107.69 46.41C108.5 44.7 108.75 42.86 108.51 41.11C108.1 38.06 106.19 35.27 103.2 33.86L90.29 27.75C90.43 28.18 90.5 28.64 90.5 29.11C90.5 31.62 88.47 33.65 85.96 33.65C85.6 33.65 85.25 33.6 84.92 33.52C85 33.86 85.05 34.21 85.05 34.56C85.05 35.47 84.78 36.31 84.32 37.02C85.33 37.85 85.97 39.11 85.97 40.51C85.97 42.44 84.77 44.09 83.06 44.74C83.56 45.47 83.84 46.35 83.84 47.29C83.84 47.92 83.71 48.52 83.47 49.07C83.26 49.55 82.96 49.99 82.6 50.38Z" fill="#3B2314"/>
<path d="M83.84 47.28C83.84 47.91 83.71 48.51 83.47 49.06L92 52.85C97.03 55.07 103.03 53.07 105.4 48.36L107.63 43.93C108.1 43.01 108.39 42.06 108.51 41.1C108.1 38.05 106.19 35.26 103.2 33.85L90.29 27.74C90.43 28.17 90.5 28.63 90.5 29.1C90.5 31.61 88.47 33.64 85.96 33.64C85.6 33.64 85.25 33.59 84.92 33.51C85 33.85 85.05 34.2 85.05 34.55C85.05 35.46 84.78 36.3 84.32 37.01C85.33 37.84 85.97 39.1 85.97 40.5C85.97 42.43 84.77 44.08 83.06 44.73C83.55 45.46 83.84 46.34 83.84 47.28Z" fill="#603813"/>
<path d="M82.13 35.59C82.13 36 82.18 36.4 82.29 36.78C82.81 38.71 84.57 40.13 86.66 40.13C87.67 40.13 88.61 39.79 89.36 39.24C90.11 39.8 91.04 40.13 92.06 40.13C93.9 40.13 95.49 39.03 96.19 37.46C96.73 39.36 98.47 40.77 100.55 40.77C103.06 40.77 105.09 38.74 105.09 36.23C105.09 35.01 104.61 33.92 103.84 33.1L103.83 33.09V33.08C103.98 32.64 104.06 32.18 104.06 31.68C104.06 30.47 103.59 29.37 102.81 28.56C101.99 27.69 100.82 27.14 99.52 27.14C98.25 27.14 97.1 27.67 96.28 28.51C95.46 27.3 94.08 26.5 92.52 26.5C90.02 26.5 87.98 28.54 87.98 31.04C87.98 31.11 87.99 31.18 88 31.24C87.57 31.11 87.13 31.04 86.66 31.04C84.16 31.05 82.13 33.09 82.13 35.59Z" fill="#E1E0D9"/>
<path d="M82.13 35.59C82.13 36 82.18 36.4 82.29 36.78C83.12 37.65 84.28 38.19 85.57 38.19C86.58 38.19 87.52 37.85 88.27 37.3C89.03 37.86 89.96 38.19 90.97 38.19C92.81 38.19 94.39 37.09 95.1 35.52C95.63 37.43 97.38 38.83 99.46 38.83C101.96 38.83 104 36.8 104 34.29C104 33.88 103.95 33.48 103.83 33.1C103.84 33.09 103.84 33.09 103.82 33.08C103.62 32.34 103.24 31.69 102.73 31.15C102.87 30.71 102.96 30.24 102.96 29.75C102.96 29.34 102.91 28.95 102.8 28.57C101.98 27.7 100.81 27.15 99.51 27.15C98.24 27.15 97.09 27.68 96.27 28.52C95.45 27.31 94.07 26.51 92.51 26.51C90.01 26.51 87.97 28.55 87.97 31.05C87.97 31.12 87.98 31.19 87.99 31.25C87.56 31.12 87.12 31.05 86.65 31.05C84.16 31.05 82.13 33.09 82.13 35.59Z" fill="#F1EFEC"/>
<path d="M67.47 67.21V79.8H71.44V65.71C71.28 65.76 71.12 65.78 70.95 65.78C70.63 65.78 70.32 65.68 70.06 65.53C69.98 66.53 69.16 67.33 68.14 67.33C67.9 67.33 67.68 67.29 67.47 67.21Z" fill="#603813"/>
<path d="M100.84 32.67C101.387 32.67 101.83 32.2268 101.83 31.68C101.83 31.1332 101.387 30.69 100.84 30.69C100.293 30.69 99.85 31.1332 99.85 31.68C99.85 32.2268 100.293 32.67 100.84 32.67Z" fill="#E1E0D9"/>
<path d="M99.64 36.58C100.187 36.58 100.63 36.1368 100.63 35.59C100.63 35.0433 100.187 34.6 99.64 34.6C99.0933 34.6 98.65 35.0433 98.65 35.59C98.65 36.1368 99.0933 36.58 99.64 36.58Z" fill="#E1E0D9"/>
<path d="M94.25 34.63C94.7968 34.63 95.24 34.1868 95.24 33.64C95.24 33.0933 94.7968 32.65 94.25 32.65C93.7032 32.65 93.26 33.0933 93.26 33.64C93.26 34.1868 93.7032 34.63 94.25 34.63Z" fill="#E1E0D9"/>
<path d="M41.63 67.58C42.26 67.58 42.83 67.35 43.28 66.99C43.7 67.56 44.37 67.94 45.13 67.95V79.81H41.17V67.53C41.32 67.56 41.48 67.58 41.63 67.58Z" fill="#603813"/>
<path d="M67.4716 79.8015L71.4417 79.8015L71.4417 77.7615L67.4716 77.7615L67.4716 79.8015Z" fill="#3B2314"/>
<path d="M62.9359 79.8066L66.8959 79.8066L66.8959 78.1666L62.9359 78.1666L62.9359 79.8066Z" fill="#3B2314"/>
<path d="M45.5758 79.8066L49.5358 79.8066L49.5358 78.1666L45.5758 78.1666L45.5758 79.8066Z" fill="#3B2314"/>
<path d="M41.1798 79.8046L45.1398 79.8046L45.1398 77.7646L41.1798 77.7646L41.1798 79.8046Z" fill="#3B2314"/>
</svg>
