<svg width="145" height="106" viewBox="0 0 145 106" fill="none" xmlns="http://www.w3.org/2000/svg">
<path d="M144.29 47.5C144 48.57 143.17 49.34 142.18 49.6C142.69 50.49 142.74 51.62 142.19 52.58C141.64 53.53 140.63 54.06 139.6 54.06C139.87 55.05 139.62 56.16 138.84 56.94C138.06 57.72 136.95 57.97 135.96 57.7C135.96 58.73 135.43 59.74 134.48 60.29C133.52 60.84 132.39 60.79 131.49 60.28C131.24 61.27 130.46 62.11 129.4 62.39C128.33 62.68 127.25 62.34 126.52 61.61C126.01 62.5 125.05 63.11 123.94 63.11C122.84 63.11 121.88 62.5 121.37 61.61C120.64 62.34 119.56 62.68 118.5 62.39C117.43 62.11 116.66 61.27 116.4 60.28C115.5 60.79 114.37 60.84 113.42 60.29C112.46 59.74 111.93 58.73 111.93 57.7C110.94 57.97 109.83 57.72 109.05 56.94C108.27 56.16 108.02 55.05 108.29 54.06C107.26 54.06 106.26 53.53 105.71 52.58C105.15 51.62 105.2 50.49 105.72 49.6C104.72 49.34 103.89 48.57 103.6 47.5C103.31 46.43 103.65 45.35 104.38 44.62C104.37 44.61 104.36 44.6 104.34 44.59C104.32 44.59 104.3 44.57 104.29 44.57C104.3 44.57 104.3 44.56 104.31 44.56C104.33 44.54 104.36 44.52 104.38 44.51C103.84 43.97 103.52 43.23 103.5 42.46C103.49 42.19 103.52 41.91 103.6 41.63C103.73 41.14 103.98 40.71 104.31 40.36C104.33 40.33 104.36 40.31 104.38 40.29C104.75 39.92 105.22 39.66 105.72 39.53C105.2 38.64 105.15 37.5 105.71 36.55C106.26 35.59 107.26 35.06 108.29 35.07C108.02 34.07 108.27 32.97 109.05 32.19C109.83 31.41 110.94 31.16 111.93 31.43C111.93 30.4 112.46 29.39 113.42 28.84C114.37 28.29 115.5 28.33 116.4 28.85C116.66 27.85 117.43 27.02 118.5 26.74C119.56 26.45 120.64 26.79 121.37 27.52C121.88 26.62 122.84 26.02 123.94 26.02C125.05 26.02 126.01 26.62 126.52 27.52C127.25 26.79 128.33 26.45 129.4 26.74C130.46 27.02 131.24 27.85 131.49 28.85C132.39 28.33 133.52 28.29 134.48 28.84C135.43 29.39 135.96 30.4 135.96 31.43C136.95 31.16 138.06 31.41 138.84 32.19C139.62 32.97 139.87 34.07 139.6 35.07C140.63 35.06 141.64 35.59 142.19 36.55C142.74 37.5 142.69 38.64 142.18 39.53C142.68 39.66 143.14 39.92 143.51 40.29C143.53 40.31 143.56 40.33 143.58 40.36C143.91 40.71 144.16 41.14 144.29 41.63C144.37 41.91 144.4 42.19 144.39 42.46C144.37 43.23 144.05 43.97 143.51 44.51C143.53 44.52 143.56 44.54 143.58 44.55C143.58 44.56 143.59 44.57 143.6 44.57C143.58 44.58 143.55 44.6 143.53 44.61C143.52 44.61 143.52 44.61 143.51 44.62C144.24 45.35 144.58 46.43 144.29 47.5Z" fill="#E1E0D9"/>
<path d="M144.39 42.46C144.4 42.73 144.37 43.01 144.29 43.29C144.16 43.78 143.91 44.21 143.58 44.55C143.56 44.57 143.54 44.59 143.53 44.61C143.52 44.61 143.52 44.61 143.51 44.62C143.15 44.99 142.68 45.25 142.18 45.39C142.69 46.28 142.74 47.41 142.19 48.36C141.64 49.32 140.63 49.85 139.6 49.84C139.87 50.84 139.62 51.95 138.84 52.72C138.06 53.51 136.95 53.76 135.96 53.49C135.96 54.52 135.43 55.52 134.48 56.07C133.52 56.62 132.39 56.58 131.49 56.06C131.24 57.06 130.46 57.89 129.4 58.18C128.33 58.46 127.25 58.13 126.52 57.4C126.01 58.29 125.05 58.9 123.94 58.9C122.84 58.9 121.88 58.29 121.37 57.4C120.64 58.13 119.56 58.46 118.5 58.18C117.43 57.89 116.66 57.06 116.4 56.06C115.5 56.58 114.37 56.62 113.42 56.07C112.46 55.52 111.93 54.52 111.93 53.49C110.94 53.76 109.83 53.51 109.05 52.72C108.27 51.95 108.02 50.84 108.29 49.84C107.26 49.85 106.26 49.32 105.71 48.36C105.15 47.41 105.2 46.28 105.72 45.39C105.21 45.25 104.75 44.99 104.38 44.62C104.37 44.61 104.36 44.6 104.34 44.59C104.34 44.58 104.33 44.57 104.31 44.56C103.99 44.21 103.74 43.78 103.6 43.29C103.52 43.01 103.49 42.73 103.5 42.46C103.52 41.68 103.84 40.95 104.38 40.41C104.36 40.39 104.33 40.38 104.31 40.36C104.3 40.36 104.3 40.35 104.29 40.35C104.32 40.33 104.35 40.31 104.38 40.29C104.75 39.92 105.22 39.66 105.72 39.53C105.2 38.64 105.15 37.5 105.71 36.55C106.26 35.59 107.26 35.06 108.29 35.07C108.02 34.07 108.27 32.97 109.05 32.19C109.83 31.41 110.94 31.16 111.93 31.43C111.93 30.4 112.46 29.39 113.42 28.84C114.37 28.29 115.5 28.33 116.4 28.85C116.66 27.85 117.43 27.02 118.5 26.74C119.56 26.45 120.64 26.79 121.37 27.52C121.88 26.62 122.84 26.02 123.94 26.02C125.05 26.02 126.01 26.62 126.52 27.52C127.25 26.79 128.33 26.45 129.4 26.74C130.46 27.02 131.24 27.85 131.49 28.85C132.39 28.33 133.52 28.29 134.48 28.84C135.43 29.39 135.96 30.4 135.96 31.43C136.95 31.16 138.06 31.41 138.84 32.19C139.62 32.97 139.87 34.07 139.6 35.07C140.63 35.06 141.64 35.59 142.19 36.55C142.74 37.5 142.69 38.64 142.18 39.53C142.68 39.66 143.14 39.92 143.51 40.29C143.54 40.31 143.57 40.33 143.6 40.35C143.59 40.35 143.59 40.36 143.58 40.36C143.56 40.38 143.53 40.39 143.51 40.41C144.05 40.95 144.37 41.68 144.39 42.46Z" fill="#F1EFEC"/>
<path d="M61.49 90.62H56.22V105.68H61.49V90.62Z" fill="#603813"/>
<path d="M84.6 90.62H79.33V105.68H84.6V90.62Z" fill="#603813"/>
<path d="M116.5 55.01C118.2 56.7 118.98 59.22 118.32 61.69C117.65 64.17 115.72 65.96 113.41 66.57C114.61 68.64 114.71 71.27 113.43 73.5C112.15 75.72 109.81 76.95 107.42 76.94C108.05 79.25 107.46 81.82 105.65 83.63C103.84 85.44 101.27 86.03 98.96 85.4C98.97 87.79 97.74 90.12 95.52 91.41C93.3 92.69 90.66 92.59 88.59 91.38C87.99 93.7 86.19 95.63 83.72 96.29C81.24 96.96 78.72 96.18 77.04 94.48C75.85 96.56 73.62 97.96 71.05 97.96C68.49 97.96 66.2499 96.56 65.0699 94.48C63.3799 96.18 60.86 96.96 58.39 96.29C55.91 95.63 54.12 93.7 53.51 91.38C51.44 92.59 48.81 92.69 46.59 91.41C44.37 90.12 43.13 87.79 43.14 85.4C40.83 86.03 38.26 85.44 36.45 83.63C34.64 81.82 34.0501 79.25 34.6801 76.94C32.2901 76.95 29.9601 75.72 28.6801 73.5C27.3901 71.27 27.49 68.64 28.7 66.57C26.38 65.96 24.45 64.17 23.79 61.69C23.12 59.22 23.9 56.7 25.6 55.01C23.52 53.83 22.12 51.59 22.12 49.03C22.12 46.56 23.42 44.39 25.38 43.19C25.45 43.14 25.52 43.09 25.6 43.05C23.9 41.36 23.12 38.84 23.79 36.36C24.45 33.89 26.38 32.1 28.7 31.49C27.49 29.42 27.3901 26.78 28.6801 24.56C29.9601 22.34 32.2901 21.11 34.6801 21.12C34.0501 18.81 34.64 16.24 36.45 14.43C38.26 12.62 40.83 12.03 43.14 12.66C43.13 10.27 44.37 7.94002 46.59 6.65002C48.81 5.37002 51.44 5.46999 53.51 6.67999C54.12 4.35999 55.91 2.43002 58.39 1.77002C60.86 1.10002 63.3799 1.88002 65.0699 3.58002C66.2499 1.50002 68.49 0.0999756 71.05 0.0999756C73.62 0.0999756 75.85 1.50002 77.04 3.58002C78.72 1.88002 81.24 1.10002 83.72 1.77002C86.19 2.43002 87.99 4.35999 88.59 6.67999C90.66 5.46999 93.3 5.37002 95.52 6.65002C97.74 7.94002 98.97 10.27 98.96 12.66C101.27 12.03 103.84 12.62 105.65 14.43C107.46 16.24 108.05 18.81 107.42 21.12C109.81 21.11 112.15 22.34 113.43 24.56C114.71 26.78 114.61 29.42 113.41 31.49C115.72 32.1 117.65 33.89 118.32 36.36C118.98 38.84 118.2 41.36 116.5 43.05C116.58 43.09 116.65 43.14 116.72 43.19C118.68 44.39 119.98 46.56 119.98 49.03C119.98 51.59 118.58 53.83 116.5 55.01Z" fill="#E1E0D9"/>
<path d="M116.5 43.32C118.2 45 118.98 47.52 118.32 50C117.65 52.48 115.72 54.27 113.41 54.88C114.61 56.95 114.71 59.58 113.43 61.8C112.15 64.02 109.81 65.25 107.42 65.24C108.05 67.55 107.46 70.12 105.65 71.93C103.84 73.75 101.27 74.33 98.96 73.71C98.97 76.1 97.7401 78.43 95.5201 79.71C93.3001 80.99 90.66 80.89 88.59 79.69C87.99 82 86.19 83.94 83.72 84.6C81.24 85.26 78.7201 84.49 77.0401 82.79C75.8501 84.86 73.6201 86.27 71.0501 86.27C68.4901 86.27 66.25 84.86 65.07 82.79C63.38 84.49 60.8601 85.26 58.3901 84.6C55.9101 83.94 54.1201 82 53.5101 79.69C51.4401 80.89 48.81 80.99 46.59 79.71C44.37 78.43 43.1301 76.1 43.1401 73.71C40.8301 74.33 38.26 73.75 36.45 71.93C34.64 70.12 34.0501 67.55 34.6801 65.24C32.2901 65.25 29.9601 64.02 28.6801 61.8C27.3901 59.58 27.49 56.95 28.7 54.88C26.38 54.27 24.4501 52.48 23.7901 50C23.1201 47.52 23.9 45 25.6 43.32C25.52 43.28 25.4501 43.23 25.3801 43.19C25.4501 43.14 25.52 43.09 25.6 43.05C23.9 41.36 23.1201 38.84 23.7901 36.36C24.4501 33.89 26.38 32.1 28.7 31.49C27.49 29.42 27.3901 26.78 28.6801 24.56C29.9601 22.34 32.2901 21.11 34.6801 21.12C34.0501 18.81 34.64 16.24 36.45 14.43C38.26 12.62 40.8301 12.03 43.1401 12.66C43.1301 10.27 44.37 7.94002 46.59 6.65002C48.81 5.37002 51.4401 5.46999 53.5101 6.67999C54.1201 4.35999 55.9101 2.43002 58.3901 1.77002C60.8601 1.10002 63.38 1.88002 65.07 3.58002C66.25 1.50002 68.4901 0.0999756 71.0501 0.0999756C73.6201 0.0999756 75.8501 1.50002 77.0401 3.58002C78.7201 1.88002 81.24 1.10002 83.72 1.77002C86.19 2.43002 87.99 4.35999 88.59 6.67999C90.66 5.46999 93.3001 5.37002 95.5201 6.65002C97.7401 7.94002 98.97 10.27 98.96 12.66C101.27 12.03 103.84 12.62 105.65 14.43C107.46 16.24 108.05 18.81 107.42 21.12C109.81 21.11 112.15 22.34 113.43 24.56C114.71 26.78 114.61 29.42 113.41 31.49C115.72 32.1 117.65 33.89 118.32 36.36C118.98 38.84 118.2 41.36 116.5 43.05C116.58 43.09 116.65 43.14 116.72 43.19C116.65 43.23 116.58 43.28 116.5 43.32Z" fill="#F1EFEC"/>
<path d="M50.1801 58.9C53.5159 58.9 56.22 56.1958 56.22 52.86C56.22 49.5242 53.5159 46.82 50.1801 46.82C46.8443 46.82 44.14 49.5242 44.14 52.86C44.14 56.1958 46.8443 58.9 50.1801 58.9Z" fill="#E1E0D9"/>
<path d="M75.1899 67.68C77.4764 67.68 79.33 65.8264 79.33 63.54C79.33 61.2535 77.4764 59.4 75.1899 59.4C72.9035 59.4 71.05 61.2535 71.05 63.54C71.05 65.8264 72.9035 67.68 75.1899 67.68Z" fill="#E1E0D9"/>
<path d="M67.11 44.57C69.1976 44.57 70.89 42.8776 70.89 40.79C70.89 38.7023 69.1976 37.01 67.11 37.01C65.0223 37.01 63.33 38.7023 63.33 40.79C63.33 42.8776 65.0223 44.57 67.11 44.57Z" fill="#E1E0D9"/>
<path d="M124.51 53.65C125.543 53.65 126.38 52.8128 126.38 51.78C126.38 50.7473 125.543 49.91 124.51 49.91C123.477 49.91 122.64 50.7473 122.64 51.78C122.64 52.8128 123.477 53.65 124.51 53.65Z" fill="#E1E0D9"/>
<path d="M132.88 47.85C133.913 47.85 134.75 47.0128 134.75 45.98C134.75 44.9472 133.913 44.11 132.88 44.11C131.847 44.11 131.01 44.9472 131.01 45.98C131.01 47.0128 131.847 47.85 132.88 47.85Z" fill="#E1E0D9"/>
<path d="M128.75 41.26C129.783 41.26 130.62 40.4228 130.62 39.39C130.62 38.3572 129.783 37.52 128.75 37.52C127.717 37.52 126.88 38.3572 126.88 39.39C126.88 40.4228 127.717 41.26 128.75 41.26Z" fill="#E1E0D9"/>
<path d="M100.02 52.86C103.356 52.86 106.06 50.1558 106.06 46.82C106.06 43.4842 103.356 40.78 100.02 40.78C96.6842 40.78 93.98 43.4842 93.98 46.82C93.98 50.1558 96.6842 52.86 100.02 52.86Z" fill="#E1E0D9"/>
<path d="M35.3199 66.5L21.42 73.08C15.15 76.04 7.65994 73.37 4.69994 67.1L1.92004 61.21C0.840035 58.93 0.509947 56.48 0.829947 54.15C1.37995 50.09 3.92002 46.38 7.90002 44.5L25.09 36.37C24.91 36.94 24.81 37.55 24.81 38.18C24.81 41.52 27.51 44.22 30.85 44.22C31.33 44.22 31.79 44.16 32.24 44.05C32.13 44.5 32.0699 44.97 32.0699 45.44C32.0699 46.65 32.43 47.77 33.04 48.71C31.7 49.82 30.85 51.49 30.85 53.36C30.85 55.93 32.45 58.12 34.72 58.99C34.06 59.96 33.68 61.13 33.68 62.38C33.68 63.22 33.85 64.02 34.17 64.75C34.45 65.4 34.8399 65.99 35.3199 66.5Z" fill="#3B2314"/>
<path d="M33.6801 62.38C33.6801 63.22 33.85 64.02 34.17 64.75L22.8101 69.79C16.1201 72.75 8.12997 70.08 4.96997 63.81L2 57.92C1.38 56.7 0.989956 55.43 0.829956 54.15C1.37996 50.09 3.92002 46.38 7.90002 44.5L25.09 36.37C24.91 36.94 24.8101 37.55 24.8101 38.18C24.8101 41.52 27.51 44.22 30.85 44.22C31.33 44.22 31.79 44.16 32.24 44.05C32.13 44.5 32.0699 44.97 32.0699 45.44C32.0699 46.65 32.43 47.77 33.04 48.71C31.7 49.82 30.85 51.49 30.85 53.36C30.85 55.93 32.45 58.12 34.72 58.99C34.06 59.96 33.6801 61.13 33.6801 62.38Z" fill="#603813"/>
<path d="M35.95 46.83C35.95 47.38 35.88 47.91 35.74 48.41C35.05 50.98 32.7 52.87 29.92 52.87C28.57 52.87 27.3299 52.42 26.3199 51.68C25.3199 52.42 24.08 52.87 22.73 52.87C20.89 52.87 19.25 52.04 18.14 50.75L18.13 50.74C17.77 50.31 17.46 49.83 17.23 49.31C17.16 49.57 17.07 49.82 16.96 50.06C16.03 52.2 13.91 53.71 11.42 53.71C9.58004 53.71 7.92996 52.89 6.82996 51.59C5.92996 50.54 5.38 49.17 5.38 47.67C5.38 46.05 6.02005 44.6 7.05005 43.51L7.06006 43.5V43.49C6.86006 42.9 6.76001 42.29 6.76001 41.63C6.76001 40.02 7.39004 38.56 8.42004 37.48C9.51004 36.32 11.07 35.59 12.8 35.59C14.49 35.59 16.02 36.29 17.11 37.42C18.2 35.81 20.04 34.75 22.12 34.75C22.98 34.75 23.8 34.93 24.54 35.26C26.19 35.98 27.4599 37.42 27.9399 39.19C28.0799 39.7 28.16 40.23 28.16 40.79C28.16 40.88 28.15 40.97 28.14 41.06C28.71 40.89 29.3 40.79 29.92 40.79C30.78 40.79 31.59 40.97 32.33 41.3C34.46 42.23 35.95 44.36 35.95 46.83Z" fill="#E1E0D9"/>
<path d="M33.78 45.22C33.78 45.77 33.7099 46.3 33.5699 46.8C32.8799 49.37 30.53 51.26 27.75 51.26C26.4 51.26 25.16 50.81 24.15 50.07C23.15 50.81 21.9101 51.26 20.5601 51.26C19.7001 51.26 18.88 51.08 18.14 50.75L18.13 50.74C17.71 50.56 17.32 50.34 16.96 50.06C16.14 49.46 15.4801 48.64 15.0601 47.7C14.3401 50.23 12.02 52.1 9.25 52.1C8.39 52.1 7.56996 51.92 6.82996 51.59C5.92996 50.54 5.38 49.17 5.38 47.67C5.38 46.05 6.02005 44.6 7.05005 43.51L7.06006 43.5V43.49C6.86006 42.9 6.76001 42.29 6.76001 41.63C6.76001 40.02 7.39004 38.56 8.42004 37.48C9.51004 36.32 11.07 35.59 12.8 35.59C14.49 35.59 16.02 36.29 17.11 37.42C18.2 35.81 20.04 34.75 22.12 34.75C22.98 34.75 23.8 34.93 24.54 35.26C25.44 36.31 25.99 37.69 25.99 39.18C25.99 39.27 25.98 39.36 25.97 39.45C26.54 39.28 27.13 39.18 27.75 39.18C27.81 39.18 27.8799 39.18 27.9399 39.19C29.6999 39.24 31.27 40.05 32.33 41.3C33.23 42.35 33.78 43.73 33.78 45.22Z" fill="#F1EFEC"/>
<path d="M55.46 88.91V105.67H50.1801V86.92C50.3901 86.98 50.61 87.01 50.83 87.01C51.26 87.01 51.67 86.88 52.02 86.68C52.12 88.01 53.22 89.07 54.58 89.07C54.89 89.07 55.19 89.02 55.46 88.91Z" fill="#603813"/>
<path d="M11.04 42.93C11.7635 42.93 12.35 42.3435 12.35 41.62C12.35 40.8965 11.7635 40.31 11.04 40.31C10.3165 40.31 9.72998 40.8965 9.72998 41.62C9.72998 42.3435 10.3165 42.93 11.04 42.93Z" fill="#E1E0D9"/>
<path d="M12.64 48.13C13.3635 48.13 13.95 47.5435 13.95 46.82C13.95 46.0965 13.3635 45.51 12.64 45.51C11.9165 45.51 11.33 46.0965 11.33 46.82C11.33 47.5435 11.9165 48.13 12.64 48.13Z" fill="#E1E0D9"/>
<path d="M19.8101 45.53C20.5336 45.53 21.12 44.9435 21.12 44.22C21.12 43.4965 20.5336 42.91 19.8101 42.91C19.0866 42.91 18.5 43.4965 18.5 44.22C18.5 44.9435 19.0866 45.53 19.8101 45.53Z" fill="#E1E0D9"/>
<path d="M89.85 89.4C89.02 89.4 88.26 89.1 87.66 88.61C87.1 89.37 86.2099 89.87 85.1899 89.89V105.67H90.46V89.33C90.27 89.37 90.06 89.4 89.85 89.4Z" fill="#603813"/>
<path d="M55.61 102.96H50.1801V105.67H55.61V102.96Z" fill="#3B2314"/>
<path d="M61.49 103.5H56.22V105.68H61.49V103.5Z" fill="#3B2314"/>
<path d="M84.6 103.5H79.33V105.68H84.6V103.5Z" fill="#3B2314"/>
<path d="M90.46 102.96H85.1899V105.67H90.46V102.96Z" fill="#3B2314"/>
</svg>
